<?xml version="1.0" encoding="utf-8"?>
<!-- Generator: Adobe Illustrator 25.2.1, SVG Export Plug-In . SVG Version: 6.00 Build 0)  -->
<svg version="1.1" id="Layer_1" xmlns="http://www.w3.org/2000/svg" xmlns:xlink="http://www.w3.org/1999/xlink" x="0px" y="0px"
	 viewBox="0 0 24 24" style="enable-background:new 0 0 24 24;" xml:space="preserve">
<style type="text/css">
	.st0{fill:#FFFFFF;}
</style>
<path class="st0" d="M12.6,3.1c-0.2-0.2-0.5-0.4-0.7-0.6c-0.5-0.5-0.6-1-0.1-1.5c0.4-0.5,1-0.6,1.5-0.2c1.1,0.9,2.2,1.9,3.3,2.9
	c0.5,0.4,0.4,1,0,1.4C15.5,6,14.4,7,13.3,7.8c-0.5,0.4-1.1,0.3-1.5-0.2c-0.4-0.5-0.3-1.1,0.1-1.5c0.2-0.2,0.5-0.4,0.8-0.7
	c-2.1,0-3.9,0.4-5.4,1.5C4.7,8.8,3.4,12.1,4.1,15c0.8,3.3,3.4,5.7,6.6,6.1c4.4,0.6,8.1-1.9,9.1-6.1c0.1-0.5,0.2-1.1,0.2-1.6
	c0.1-0.8,0.4-1.2,1.1-1.2c0.7,0,1.1,0.5,1.1,1.3c-0.1,3.4-1.6,6.1-4.3,8C12.1,25.8,3.8,22.8,2,15.7C0.5,10.4,4.2,4.6,9.7,3.4
	C10.6,3.3,11.6,3.2,12.6,3.1z"/>
</svg>
